<svg id="Layer_1" data-name="Layer 1" xmlns="http://www.w3.org/2000/svg" viewBox="0 0 879 211.5"><defs><style>.cls-1{fill:#d7edfd;}</style></defs><path class="cls-1" d="M882.24,208a3,3,0,0,1-3-3V195a3,3,0,0,1,6,0v10A3,3,0,0,1,882.24,208Z" transform="translate(-6.24 3.49)"/><path class="cls-1" d="M882.24,168.37a3,3,0,0,1-3-3v-6.86a108.68,108.68,0,0,0-.65-12.52,3,3,0,0,1,6-.69,116.14,116.14,0,0,1,.69,13.21v6.86A3,3,0,0,1,882.24,168.37ZM871,121.52a3,3,0,0,1-2.24-1,37.25,37.25,0,0,0-15.09-10,3,3,0,1,1,2.13-5.6,43.08,43.08,0,0,1,17.45,11.61,3,3,0,0,1-2.25,5Zm-45.31-15.88h-.12c-2.25-.09-4.61-.13-7-.13H805.89a3,3,0,0,1,0-6h12.63c2.5,0,4.94,0,7.27.14a3,3,0,0,1-.12,6Zm-49.48-.13h-19.8a3,3,0,0,1,0-6h19.8a3,3,0,0,1,0,6Zm-49.49,0H706.91a3,3,0,0,1,0-6H726.7a3,3,0,0,1,0,6Zm-49.48,0H657.43a3,3,0,0,1,0-6h19.79a3,3,0,0,1,0,6Zm-49.47,0H608a3,3,0,0,1,0-6h19.79a3,3,0,0,1,0,6Zm-49.47,0H558.5a3,3,0,0,1,0-6h19.78a3,3,0,0,1,0,6Zm-49.46,0H509.06a3,3,0,0,1,0-6h19.76a3,3,0,0,1,0,6Zm-49.46,0H459.58a3,3,0,0,1,0-6h19.78a3,3,0,0,1,0,6Zm-49.47,0H410.11a3,3,0,0,1,0-6h19.78a3,3,0,0,1,0,6Zm-49.46,0H360.65a3,3,0,0,1,0-6h19.78a3,3,0,0,1,0,6Zm-49.47,0H311.18a3,3,0,0,1,0-6H331a3,3,0,0,1,0,6Zm-49.47,0H261.7a3,3,0,0,1,0-6h19.79a3,3,0,0,1,0,6Zm-49.48,0H212.22a3,3,0,0,1,0-6H232a3,3,0,0,1,0,6Zm-49.5,0h-19.8a3,3,0,0,1,0-6h19.8a3,3,0,0,1,0,6Zm-49.52,0H113.17a3,3,0,0,1,0-6H133a3,3,0,0,1,0,6Zm-49.56,0H65.64l-2.12,0a3,3,0,0,1,0-6h0l2,0H83.43a3,3,0,0,1,0,6Zm-48.81-5.45a2.94,2.94,0,0,1-1.22-.26A43,43,0,0,1,16.76,87a3,3,0,1,1,4.73-3.69,37,37,0,0,0,14.35,11,3,3,0,0,1-1.22,5.74ZM9.51,60.62a3,3,0,0,1-3-2.75c-.2-2.36-.29-4.84-.29-7.37V37.88a3,3,0,0,1,6,0V50.51c0,2.36.09,4.68.27,6.87a3,3,0,0,1-2.75,3.24Z" transform="translate(-6.24 3.49)"/><path class="cls-1" d="M9.24,12.5a3,3,0,0,1-3-3v-10a3,3,0,0,1,3-3,3,3,0,0,1,3,3v10A3,3,0,0,1,9.24,12.5Z" transform="translate(-6.24 3.49)"/></svg>