<svg id="Layer_1" data-name="Layer 1" xmlns="http://www.w3.org/2000/svg" viewBox="0 0 879 211.5"><defs><style>.cls-1{fill:#d7edfd;}</style></defs><path class="cls-1" d="M9.24,208a3,3,0,0,0,3-3V195a3,3,0,0,0-6,0v10A3,3,0,0,0,9.24,208Z" transform="translate(-6.24 3.49)"/><path class="cls-1" d="M6.24,165.37v-6.86a116.27,116.27,0,0,1,.68-13.21,3,3,0,0,1,6,.69,111.12,111.12,0,0,0-.64,12.52v6.86a3,3,0,0,1-6,0ZM18.5,120.76a3,3,0,0,1-.25-4.23A43,43,0,0,1,35.7,104.92a3,3,0,1,1,2.13,5.6,37.18,37.18,0,0,0-15.09,10,3,3,0,0,1-4.24.25Zm44.31-18a3,3,0,0,1,2.88-3.11c2.32-.1,4.77-.14,7.26-.14H85.58a3,3,0,0,1,0,6H73c-2.41,0-4.78,0-7,.13H65.8A3,3,0,0,1,62.81,102.76Zm49.48-.25a3,3,0,0,1,3-3h19.79a3,3,0,0,1,0,6H115.29A3,3,0,0,1,112.29,102.51Zm49.49,0a3,3,0,0,1,3-3h19.79a3,3,0,0,1,0,6H164.78A3,3,0,0,1,161.78,102.51Zm49.48,0a3,3,0,0,1,3-3H234a3,3,0,0,1,0,6H214.26A3,3,0,0,1,211.26,102.51Zm49.47,0a3,3,0,0,1,3-3h19.78a3,3,0,0,1,0,6H263.73A3,3,0,0,1,260.73,102.51Zm49.46,0a3,3,0,0,1,3-3H333a3,3,0,0,1,0,6H313.19A3,3,0,0,1,310.19,102.51Zm49.47,0a3,3,0,0,1,3-3h19.76a3,3,0,0,1,0,6H362.66A3,3,0,0,1,359.66,102.51Zm49.46,0a3,3,0,0,1,3-3H431.9a3,3,0,0,1,0,6H412.12A3,3,0,0,1,409.12,102.51Zm49.46,0a3,3,0,0,1,3-3h19.78a3,3,0,0,1,0,6H461.58A3,3,0,0,1,458.58,102.51Zm49.46,0a3,3,0,0,1,3-3h19.79a3,3,0,0,1,0,6H511A3,3,0,0,1,508,102.51Zm49.47,0a3,3,0,0,1,3-3H580.3a3,3,0,0,1,0,6H560.51A3,3,0,0,1,557.51,102.51Zm49.47,0a3,3,0,0,1,3-3h19.79a3,3,0,0,1,0,6H610A3,3,0,0,1,607,102.51Zm49.49,0a3,3,0,0,1,3-3h19.79a3,3,0,0,1,0,6H659.47A3,3,0,0,1,656.47,102.51Zm49.49,0a3,3,0,0,1,3-3h19.8a3,3,0,0,1,0,6H709A3,3,0,0,1,706,102.51Zm49.52,0a3,3,0,0,1,3-3H778.3a3,3,0,0,1,0,6H758.48A3,3,0,0,1,755.48,102.51Zm49.56,0a3,3,0,0,1,3-3h17.79l2,0h0a3,3,0,0,1,.05,6l-2.13,0H808A3,3,0,0,1,805,102.51Zm49.07-4.23a3,3,0,0,1,1.52-4,36.9,36.9,0,0,0,14.35-11A3,3,0,0,1,874.71,87,42.89,42.89,0,0,1,858.07,99.8a2.91,2.91,0,0,1-1.22.26A3,3,0,0,1,854.11,98.28Zm27.6-37.66A3,3,0,0,1,879,57.38c.18-2.19.27-4.51.27-6.87V37.88a3,3,0,1,1,6,0V50.5c0,2.53-.1,5-.29,7.37a3,3,0,0,1-3,2.76Z" transform="translate(-6.24 3.49)"/><path class="cls-1" d="M882.24,12.5a3,3,0,0,0,3-3v-10a3,3,0,0,0-3-3,3,3,0,0,0-3,3v10A3,3,0,0,0,882.24,12.5Z" transform="translate(-6.24 3.49)"/></svg>